<?xml version="1.0" standalone="no"?><!DOCTYPE svg PUBLIC "-//W3C//DTD SVG 1.1//EN" "http://www.w3.org/Graphics/SVG/1.1/DTD/svg11.dtd"><svg t="1592438326935" class="icon" viewBox="0 0 1024 1024" version="1.1" xmlns="http://www.w3.org/2000/svg" p-id="2721" xmlns:xlink="http://www.w3.org/1999/xlink" width="200" height="200"><defs><style type="text/css"></style></defs><path d="M710.111057 657.382135c123.818003 17.96414 149.265582 57.45148 172.574451 79.421864 23.369244 21.975501 29.29521 128.903835 29.29521 128.903835 0 101.95302-179.074491 92.301196-399.979694 92.301196-220.902132 0-399.98174 9.652847-399.98174-92.301196 0-3.140527 0.682545-6.203282 1.017166-9.305947 0.369414-25.90295 3.103688-101.45774 22.36538-119.592772 23.336498-21.979594 47.044456-61.46284 170.846086-79.417771 123.812887-17.980513 105.894795-82.10088 109.967554-80.083943-0.748037-24.310685-1.011027-57.160861-1.011027-57.160861s-49.585325-28.157293-68.578911-81.370239c-39.856753-15.755846-34.58161-25.88146-38.455847-46.222741 0 0-12.105712-82.551134 14.81645-80.846306 0 0 14.971993 0 10.69355-18.933211-1.417279-31.56081-0.87902-90.733491 1.25048-111.795179 2.14792-21.058618 17.998933-77.880765 62.917982-86.307691 44.931329-8.41567 26.910906-0.38988 41.901319-2.489704 14.966876-2.12336 10.688433-14.341636 38.483476-14.341636l0.007163-0.011256 57.340963-12.08013c27.801183 0 45.639456 38.158065 60.576657 40.259936 15.008832 2.114151 18.984377-3.449565 49.640584 2.164293 44.919049 8.411577 41.723264 68.597331 43.843554 89.644693 2.145873 21.038152 3.541663 80.223113-0.717338 99.161441-4.264117 18.942421 9.075703 14.713097 9.075703 14.713097 28.223808-0.415462 19.432585 82.971713 19.432585 82.971713-4.945639 21.391193-16.298198 23.991414-46.183855 42.549072-19.007913 53.214992-60.994166 85.862553-60.994166 85.862553s-1.331321 40.625256-1.562589 50.194192C609.537454 577.048505 589.747735 640.259152 710.111057 657.382135z" p-id="2722"></path></svg>