<?xml version="1.0" standalone="no"?><!DOCTYPE svg PUBLIC "-//W3C//DTD SVG 1.1//EN" "http://www.w3.org/Graphics/SVG/1.1/DTD/svg11.dtd"><svg t="1592435523224" class="icon" viewBox="0 0 1024 1024" version="1.1" xmlns="http://www.w3.org/2000/svg" p-id="3418" xmlns:xlink="http://www.w3.org/1999/xlink" width="200" height="200"><defs><style type="text/css"></style></defs><path d="M780.174222 435.427556h-0.056889A283.306667 283.306667 0 0 0 796.387556 341.333333a284.444444 284.444444 0 1 0-568.888889 0c0 33.052444 5.916444 64.568889 16.270222 94.094223a340.992 340.992 0 0 0-186.936889 304.071111v170.666666A56.888889 56.888889 0 0 0 113.777778 967.111111h796.273778a56.888889 56.888889 0 0 0 56.945777-56.945778v-170.666666a340.821333 340.821333 0 0 0-186.936889-304.071111zM512 170.666667c94.094222 0 170.666667 76.572444 170.666667 170.666666s-76.572444 170.666667-170.666667 170.666667-170.666667-76.572444-170.666667-170.666667 76.572444-170.666667 170.666667-170.666666z m341.333333 682.666666H170.666667v-113.834666c0-91.249778 54.158222-169.927111 131.868444-206.165334C354.531556 590.051556 428.999111 625.777778 512 625.777778s157.468444-35.726222 209.464889-92.444445A227.669333 227.669333 0 0 1 853.333333 739.498667V853.333333z" fill="" p-id="3419"></path></svg>